<svg width="13" height="16" viewBox="0 0 13 16" fill="none" xmlns="http://www.w3.org/2000/svg">
<path d="M4.5 12.05C4.5 12.2975 4.2975 12.5 4.05 12.5C3.8025 12.5 3.6 12.2975 3.6 12.05V6.20005C3.6 5.95255 3.8025 5.75005 4.05 5.75005C4.2975 5.75005 4.5 5.95255 4.5 6.20005V12.05ZM6.75 12.05C6.75 12.2975 6.5475 12.5 6.3 12.5C6.0525 12.5 5.85 12.2975 5.85 12.05V6.20005C5.85 5.95255 6.0525 5.75005 6.3 5.75005C6.5475 5.75005 6.75 5.95255 6.75 6.20005V12.05ZM9 12.05C9 12.2975 8.7975 12.5 8.55 12.5C8.3025 12.5 8.1 12.2975 8.1 12.05V6.20005C8.1 5.95255 8.3025 5.75005 8.55 5.75005C8.7975 5.75005 9 5.95255 9 6.20005V12.05ZM8.92969 1.50149L9.96188 3.05005H11.925C12.2991 3.05005 12.6 3.35239 12.6 3.72505C12.6 4.09911 12.2991 4.40005 11.925 4.40005H11.7V12.95C11.7 14.1932 10.6931 15.2 9.45 15.2H3.15C1.90744 15.2 0.9 14.1932 0.9 12.95V4.40005H0.675C0.302344 4.40005 0 4.09911 0 3.72505C0 3.35239 0.302344 3.05005 0.675 3.05005H2.63869L3.67031 1.50149C3.96281 1.06321 4.455 0.800049 4.98094 0.800049H7.61906C8.145 0.800049 8.63719 1.06324 8.92969 1.50149ZM4.26094 3.05005H8.33906L7.80469 2.25017C7.7625 2.18774 7.69219 2.15005 7.61906 2.15005H4.98094C4.90781 2.15005 4.81219 2.18774 4.79531 2.25017L4.26094 3.05005ZM2.25 12.95C2.25 13.4479 2.65303 13.85 3.15 13.85H9.45C9.94781 13.85 10.35 13.4479 10.35 12.95V4.40005H2.25V12.95Z" fill="#212121"/>
</svg>
