<svg width="12" height="10" viewBox="0 0 12 10" fill="none" xmlns="http://www.w3.org/2000/svg">
<path d="M5.82525 2.675C5.88359 2.66875 5.94193 2.66667 6.00026 2.66667C7.10448 2.66667 8.00035 3.54375 8.00035 4.66667C8.00035 5.77083 7.10448 6.66667 6.00026 6.66667C4.8773 6.66667 4.00018 5.77083 4.00018 4.66667C4.00018 4.60833 4.00226 4.55 4.00851 4.49167C4.20227 4.58542 4.42728 4.66667 4.66687 4.66667C5.40232 4.66667 6.00026 4.06875 6.00026 3.33333C6.00026 3.09375 5.91901 2.86875 5.82525 2.675ZM10.0129 1.67917C10.988 2.58333 11.6401 3.64792 11.9484 4.41042C12.0172 4.575 12.0172 4.75833 11.9484 4.92292C11.6401 5.66667 10.988 6.73125 10.0129 7.65417C9.03164 8.56667 7.68367 9.33333 6.00026 9.33333C4.31686 9.33333 2.96888 8.56667 1.98801 7.65417C1.01296 6.73125 0.361268 5.66667 0.0512757 4.92292C-0.0170919 4.75833 -0.0170919 4.575 0.0512757 4.41042C0.361268 3.64792 1.01296 2.58333 1.98801 1.67917C2.96888 0.7675 4.31686 0 6.00026 0C7.68367 0 9.03164 0.7675 10.0129 1.67917ZM6.00026 1.66667C4.34394 1.66667 3.00013 3.01042 3.00013 4.66667C3.00013 6.32292 4.34394 7.66667 6.00026 7.66667C7.65658 7.66667 9.00039 6.32292 9.00039 4.66667C9.00039 3.01042 7.65658 1.66667 6.00026 1.66667Z" fill="#37363D"/>
</svg>
