<svg width="18" height="18" viewBox="0 0 18 18" fill="none" xmlns="http://www.w3.org/2000/svg">
<path d="M8.99965 5.61503C7.13574 5.61503 5.65642 7.12344 5.65642 8.95262C5.65642 10.7818 7.1048 12.3534 8.99965 12.3534C10.8945 12.3534 12.3429 10.845 12.3429 9.01579C12.3429 7.18661 10.8629 5.61503 8.99965 5.61503ZM17.9044 12.2095L15.6826 8.98421L17.9026 5.79016C18.1252 5.46991 17.9414 5.02718 17.5572 4.95769L13.7253 4.26631L13.0328 0.440885C12.9633 0.05729 12.5198 -0.12626 12.1989 0.0961058L8.99965 2.34377L5.76891 0.127341C5.44813 -0.0948845 5.00465 0.0884901 4.93504 0.47212L4.27483 4.29894L0.441548 4.99033C0.0574108 5.05701 -0.126414 5.50272 0.0961866 5.79051L2.31636 9.01579L0.0963272 12.2098C-0.126273 12.5301 0.0574811 12.9728 0.441689 13.0423L4.27357 13.7337L4.96612 17.5591C5.03555 17.9427 5.47903 18.1263 5.79999 17.9039L8.99965 15.6875L12.1991 17.9038C12.5199 18.1261 12.9637 17.9426 13.033 17.559L13.7255 13.7336L17.5574 13.0422C17.943 12.9746 18.1258 12.5289 17.9044 12.2095ZM8.99965 13.4764C6.51455 13.4764 4.53146 11.4651 4.53146 9.01579C4.53146 6.53488 6.54619 4.55514 8.99965 4.55514C11.4531 4.55514 13.4678 6.56612 13.4678 9.01579C13.4678 11.4971 11.4851 13.4764 8.99965 13.4764Z" fill="#F0F0F0"/>
</svg>
