<svg width="16" height="16" viewBox="0 0 16 16" fill="none" xmlns="http://www.w3.org/2000/svg">
<path d="M15.2132 15.2132C14.6118 15.8146 13.6379 15.8142 13.0372 15.2135L8.14181 10.3182L3.24646 15.2135C2.64508 15.8149 1.67178 15.8139 1.07108 15.2132C0.470383 14.6125 0.469362 13.6392 1.07074 13.0378L5.9661 8.14248L1.07074 3.24712C0.470042 2.64642 0.469702 1.67245 1.07108 1.07107C1.67246 0.469687 2.64576 0.470707 3.24646 1.07141L8.14181 5.96676L13.0372 1.07141C13.6385 0.470027 14.6125 0.470367 15.2132 1.07107C15.8139 1.67177 15.8143 2.64574 15.2129 3.24712L10.3175 8.14248L15.2129 13.0378C15.8149 13.6392 15.8149 14.6115 15.2132 15.2132Z" fill="#212121"/>
</svg>
