<svg width="6" height="8" viewBox="0 0 6 8" fill="none" xmlns="http://www.w3.org/2000/svg">
<path fill-rule="evenodd" clip-rule="evenodd" d="M0.614596 4.60606C0.41658 4.60606 0.238059 4.72419 0.162282 4.90537C0.0865042 5.08654 0.128388 5.29509 0.268408 5.43375L2.7163 7.858C2.90749 8.04733 3.21749 8.04733 3.40867 7.858L5.85658 5.43375C5.9966 5.29509 6.03851 5.08654 5.96272 4.90537C5.88693 4.72419 5.70843 4.60606 5.51039 4.60606H0.614596Z" fill="#36373A"/>
<path fill-rule="evenodd" clip-rule="evenodd" d="M5.3854 3.39394C5.58342 3.39394 5.76194 3.27581 5.83772 3.09463C5.9135 2.91346 5.87161 2.70491 5.73159 2.56625L3.2837 0.142001C3.09251 -0.0473335 2.78251 -0.0473335 2.59133 0.142L0.143424 2.56625C0.00340365 2.70491 -0.0385049 2.91346 0.0372823 3.09463C0.113069 3.27581 0.291571 3.39394 0.489607 3.39394L5.3854 3.39394Z" fill="#36373A"/>
</svg>
