<svg width="4" height="6" viewBox="0 0 4 6" fill="none" xmlns="http://www.w3.org/2000/svg">
<path d="M3.99942 0.55761C3.99982 0.628089 3.98446 0.697996 3.95422 0.763109C3.92398 0.828222 3.8795 0.887324 3.82342 0.936838L1.42345 3.08342L3.82342 5.23C3.87958 5.33395 3.8967 5.45131 3.8723 5.56467C3.84798 5.67802 3.78342 5.78133 3.68822 5.85926C3.59294 5.93719 3.47222 5.98558 3.34382 5.99725C3.21543 6.00892 3.08623 5.98326 2.97543 5.92406L0.175469 3.41971C0.0631106 3.31911 -1.23147e-07 3.18273 -1.29364e-07 3.04049C-1.35579e-07 2.89831 0.0631106 2.76186 0.175469 2.66126L2.97543 0.156916C3.08791 0.056456 3.24047 -1.41645e-07 3.39942 -1.48594e-07C3.55846 -1.55545e-07 3.71094 0.0564559 3.82342 0.156915C3.88254 0.208934 3.9287 0.271542 3.95902 0.340519C3.98934 0.409568 4.0031 0.483553 3.99942 0.55761Z" fill="#36373A"/>
</svg>
