<svg width="10" height="7" viewBox="0 0 10 7" fill="none" xmlns="http://www.w3.org/2000/svg">
<path d="M0.929349 0.500875C1.04682 0.500275 1.16333 0.523315 1.27185 0.568675C1.38037 0.614034 1.47887 0.680753 1.5614 0.764872L5.13903 4.36483L8.71667 0.764873C8.88991 0.680634 9.08551 0.654954 9.27445 0.691554C9.46337 0.728033 9.63555 0.824872 9.76543 0.96767C9.89531 1.11059 9.97596 1.29167 9.99541 1.48426C10.0149 1.67686 9.9721 1.87066 9.87344 2.03686L5.69952 6.2368C5.53185 6.40533 5.30455 6.5 5.06748 6.5C4.83052 6.5 4.6031 6.40533 4.43543 6.2368L0.261526 2.03686C0.0940928 1.86814 -5.28739e-07 1.6393 -5.07894e-07 1.40086C-4.87038e-07 1.16231 0.0940929 0.93359 0.261526 0.764872C0.348224 0.676193 0.45257 0.606954 0.567532 0.561474C0.682613 0.515995 0.805921 0.495355 0.929349 0.500875Z" fill="#36373A"/>
</svg>
