<svg width="12" height="12" viewBox="0 0 12 12" fill="none" xmlns="http://www.w3.org/2000/svg">
<path d="M10.2 0H1.8C0.951474 0 0.527208 -1.98682e-08 0.263604 0.2748C7.15256e-08 0.549599 0 0.991879 0 1.87644V2.33632C0 3.02821 -5.36442e-08 3.37415 0.15576 3.66094C0.31152 3.94773 0.596082 4.12571 1.16521 4.48169L2.91302 5.57492C3.29488 5.81372 3.4858 5.93319 3.62251 6.06506C3.90719 6.33966 4.08245 6.66232 4.16186 7.05812C4.2 7.24812 4.2 7.47052 4.2 7.91526V9.69492C4.2 10.3013 4.2 10.6045 4.35115 10.8408C4.50231 11.0772 4.77077 11.1938 5.30772 11.427C6.43488 11.9166 6.99846 12.1614 7.39926 11.8829C7.8 11.6044 7.8 10.9679 7.8 9.69492V7.91526C7.8 7.47052 7.8 7.24812 7.83816 7.05812C7.91754 6.66232 8.0928 6.33966 8.3775 6.06506C8.51418 5.93319 8.7051 5.81372 9.087 5.57492L10.8348 4.48169C11.4039 4.12571 11.6885 3.94773 11.8442 3.66094C12 3.37415 12 3.02821 12 2.33632V1.87644C12 0.991879 12 0.549599 11.7364 0.2748C11.4728 -1.98682e-08 11.0485 0 10.2 0Z" fill="#36373A" fill-opacity="0.5"/>
</svg>
