<svg width="20" height="20" viewBox="0 0 20 20" fill="none" xmlns="http://www.w3.org/2000/svg">
<path d="M5 7C6.10457 7 7 6.10457 7 5V1C7 0.44772 6.55228 0 6 0C5.44772 0 5 0.44772 5 1V5H1C0.44772 5 0 5.44772 0 6C0 6.55228 0.44772 7 1 7H5Z" fill="#36373A"/>
<path d="M15 7C13.8954 7 13 6.10457 13 5V1C13 0.44772 13.4477 0 14 0C14.5523 0 15 0.44772 15 1V5H19C19.5523 5 20 5.44772 20 6C20 6.55228 19.5523 7 19 7H15Z" fill="#36373A"/>
<path d="M15 13C13.8954 13 13 13.8954 13 15V19C13 19.5523 13.4477 20 14 20C14.5523 20 15 19.5523 15 19V15H19C19.5523 15 20 14.5523 20 14C20 13.4477 19.5523 13 19 13H15Z" fill="#36373A"/>
<path d="M7 15C7 13.8954 6.10457 13 5 13H1C0.44772 13 0 13.4477 0 14C0 14.5523 0.44772 15 1 15H5V19C5 19.5523 5.44772 20 6 20C6.55228 20 7 19.5523 7 19V15Z" fill="#36373A"/>
</svg>
