<svg width="20" height="20" viewBox="0 0 20 20" fill="none" xmlns="http://www.w3.org/2000/svg">
<path d="M2 0C0.89543 0 0 0.89543 0 2V6C0 6.55228 0.44772 7 1 7C1.55228 7 2 6.55228 2 6V2H6C6.55228 2 7 1.55228 7 1C7 0.44772 6.55228 0 6 0H2Z" fill="#36373A"/>
<path d="M18 0C19.1046 0 20 0.89543 20 2V6C20 6.55228 19.5523 7 19 7C18.4477 7 18 6.55228 18 6V2H14C13.4477 2 13 1.55228 13 1C13 0.44772 13.4477 0 14 0H18Z" fill="#36373A"/>
<path d="M18 20C19.1046 20 20 19.1046 20 18V14C20 13.4477 19.5523 13 19 13C18.4477 13 18 13.4477 18 14V18H14C13.4477 18 13 18.4477 13 19C13 19.5523 13.4477 20 14 20H18Z" fill="#36373A"/>
<path d="M0 18C0 19.1046 0.89543 20 2 20H6C6.55228 20 7 19.5523 7 19C7 18.4477 6.55228 18 6 18H2V14C2 13.4477 1.55228 13 1 13C0.44772 13 0 13.4477 0 14V18Z" fill="#36373A"/>
</svg>
