<svg width="19" height="20" viewBox="0 0 19 20" fill="none" xmlns="http://www.w3.org/2000/svg">
<path d="M9 13.375L12.375 10M12.375 10L9 6.625M12.375 10H0M5.625 4.65466V4.60023C5.625 3.3401 5.625 2.70957 5.87024 2.22828C6.08595 1.8049 6.4299 1.46095 6.85327 1.24524C7.33455 1 7.96511 1 9.22523 1H14.4002C15.6603 1 16.2896 1 16.7708 1.24524C17.1942 1.46095 17.5393 1.8049 17.755 2.22828C18 2.7091 18 3.33886 18 4.59652V15.4041C18 16.6617 18 17.2906 17.755 17.7714C17.5393 18.1947 17.1942 18.5393 16.7708 18.755C16.29 19 15.6611 19 14.4035 19H9.22151C7.96388 19 7.3341 19 6.85327 18.755C6.4299 18.5393 6.08595 18.1944 5.87024 17.7711C5.625 17.2898 5.625 16.6601 5.625 15.4V15.3438" stroke="#36373A" stroke-opacity="0.5" stroke-width="2" stroke-linecap="round" stroke-linejoin="round"/>
</svg>
