<svg width="16" height="18" viewBox="0 0 16 18" fill="none" xmlns="http://www.w3.org/2000/svg">
<path d="M16 18H0V16.5H1.74545C0.581818 12.75 2.90909 11.25 4.43636 10.2C5.09091 9.75 5.74545 9.375 5.74545 9C5.74545 8.625 5.09091 8.175 4.43636 7.8C2.90909 6.75 0.581818 5.325 1.74545 1.5H0V0H16V1.5H14.2545C15.4182 5.25 13.0909 6.75 11.5636 7.8C10.8364 8.175 10.1818 8.625 10.1818 9C10.1818 9.375 10.8364 9.825 11.4909 10.2C13.0182 11.25 15.3455 12.75 14.1818 16.5H16V18ZM3.34545 16.5H12.6545C13.8182 13.5 12.2909 12.525 10.7636 11.475C9.74545 10.875 8.72727 10.2 8.72727 9C8.72727 7.8 9.74545 7.125 10.7636 6.525C12.2909 5.475 13.8182 4.5 12.6545 1.5H3.34545C2.18182 4.5 3.70909 5.475 5.23636 6.525C6.25455 7.125 7.27273 7.8 7.27273 9C7.27273 10.2 6.25455 10.875 5.23636 11.475C3.70909 12.525 2.18182 13.5 3.34545 16.5Z" fill="#36373A"/>
<path d="M11.4909 17.25H4.36364C4.14545 16.125 4.50909 15.45 6.03636 14.025C6.61818 13.5 7.34545 12.9 8 11.925C8.72727 12.825 9.45455 13.5 9.96364 14.025C11.4909 15.525 11.8545 15.75 11.4909 17.25Z" fill="#36373A"/>
<path d="M6.10909 4.5C5.6 5.475 5.6 5.475 6.76364 6.075C7.12727 6.225 7.56364 6.45 7.92727 6.75C8.29091 6.45 8.8 6.225 9.09091 6.075C10.3273 5.475 10.3273 5.475 9.81818 4.5" fill="#36373A"/>
</svg>
