<svg width="18" height="18" viewBox="0 0 18 18" fill="none" xmlns="http://www.w3.org/2000/svg">
<path fill-rule="evenodd" clip-rule="evenodd" d="M3.59581 5.4C3.59581 2.41766 6.01567 0 9.00073 0C11.9858 0 14.4057 2.41766 14.4057 5.4C14.4057 8.38233 11.9858 10.8 9.00073 10.8C6.01567 10.8 3.59581 8.38233 3.59581 5.4Z" fill="#36373A"/>
<path fill-rule="evenodd" clip-rule="evenodd" d="M3.08318 13.4123C4.54696 12.7992 6.49942 12.6 9.00073 12.6C11.4969 12.6 13.4464 12.7984 14.9089 13.4083C16.4786 14.063 17.4422 15.1752 17.9558 16.7928C18.1466 17.394 17.6953 18 17.0714 18H0.9245C0.30314 18 -0.145496 17.3967 0.043776 16.7989C0.555866 15.1813 1.51598 14.0686 3.08318 13.4123Z" fill="#36373A"/>
</svg>
