<svg viewBox="0 0 322 46" fill="none" xmlns="http://www.w3.org/2000/svg">
<path d="M36.2797 38.4556H19.859L14.5119 45.9178H0L37.0053 3.10209H46.2388V45.9178H36.2797V38.4556ZM36.2797 28.0575V17.434L28.0563 28.0575H36.2797Z" fill="#232537"/>
<path d="M46.2388 3.10209L52.993 3.18427C57.6794 3.18427 61.805 4.06098 65.3698 5.81439C68.9747 7.52702 71.7585 9.99402 73.7212 13.2154C75.7239 16.4368 76.7253 20.229 76.7253 24.5921C76.7253 28.9553 75.7239 32.7475 73.7212 35.9689C71.7585 39.1903 68.9747 41.6777 65.3698 43.4311C61.805 45.1437 57.6794 46 52.993 46L46.2388 45.9178V3.10209ZM52.3922 34.7456C55.4363 34.7456 57.8596 33.8689 59.6621 32.1155C61.5046 30.3213 62.4258 27.8135 62.4258 24.5921C62.4258 21.3708 61.5046 18.8834 59.6621 17.13C57.8596 15.3358 55.4363 14.4387 52.3922 14.4387H46.2388V34.7456H52.3922Z" fill="#232537"/>
<path d="M128.566 36.071H113.421L110.914 43.4403H102.906L116.58 4.70973H125.461L139.135 43.4403H131.072L128.566 36.071ZM126.496 29.8652L120.993 13.6859L115.491 29.8652H126.496Z" fill="#232537"/>
<path d="M160.972 12.3007C164.568 12.3007 167.474 13.4643 169.689 15.7914C171.905 18.0817 173.013 21.2954 173.013 25.4325V43.4403H165.385V26.4853C165.385 24.0473 164.786 22.1819 163.587 20.889C162.389 19.5592 160.754 18.8943 158.684 18.8943C156.578 18.8943 154.907 19.5592 153.672 20.889C152.473 22.1819 151.874 24.0473 151.874 26.4853V43.4403H144.247V12.744H151.874V16.5672C152.891 15.2374 154.18 14.2031 155.742 13.4643C157.34 12.6886 159.084 12.3007 160.972 12.3007Z" fill="#232537"/>
<path d="M184.134 9.08701C182.79 9.08701 181.664 8.66221 180.756 7.81261C179.884 6.92607 179.449 5.83637 179.449 4.54351C179.449 3.25064 179.884 2.1794 180.756 1.32981C181.664 0.443268 182.79 0 184.134 0C185.478 0 186.586 0.443268 187.457 1.32981C188.365 2.1794 188.819 3.25064 188.819 4.54351C188.819 5.83637 188.365 6.92607 187.457 7.81261C186.586 8.66221 185.478 9.08701 184.134 9.08701ZM187.893 12.744V43.4403H180.266V12.744H187.893Z" fill="#232537"/>
<path d="M208.722 4.76514C212.717 4.76514 216.222 5.55933 219.237 7.14771C222.288 8.73609 224.631 11.0078 226.265 13.963C227.936 16.8812 228.771 20.2795 228.771 24.1581C228.771 28.0367 227.936 31.4351 226.265 34.3533C224.631 37.2346 222.288 39.4694 219.237 41.0578C216.222 42.6461 212.717 43.4403 208.722 43.4403H195.429V4.76514H208.722ZM208.45 36.8467C212.445 36.8467 215.532 35.7385 217.712 33.5222C219.891 31.3059 220.98 28.1845 220.98 24.1581C220.98 20.1318 219.891 16.992 217.712 14.7387C215.532 12.4485 212.445 11.3034 208.45 11.3034H203.056V36.8467H208.45Z" fill="#232537"/>
<path d="M232.519 27.9813C232.519 24.8785 233.118 22.1265 234.317 19.7255C235.552 17.3244 237.205 15.4775 239.275 14.1846C241.381 12.8917 243.724 12.2453 246.303 12.2453C248.555 12.2453 250.516 12.707 252.187 13.6305C253.894 14.554 255.256 15.7176 256.273 17.1213V12.744H263.955V43.4403H256.273V38.9522C255.292 40.3929 253.93 41.5934 252.187 42.5538C250.48 43.4773 248.5 43.939 246.248 43.939C243.706 43.939 241.381 43.2741 239.275 41.9443C237.205 40.6145 235.552 38.7491 234.317 36.348C233.118 33.9101 232.519 31.1212 232.519 27.9813ZM256.273 28.0922C256.273 26.2083 255.91 24.6014 255.183 23.2716C254.457 21.9049 253.476 20.8706 252.241 20.1687C251.006 19.4299 249.681 19.0606 248.264 19.0606C246.848 19.0606 245.54 19.4115 244.342 20.1133C243.143 20.8152 242.162 21.8495 241.4 23.2162C240.673 24.546 240.31 26.1344 240.31 27.9813C240.31 29.8283 240.673 31.4536 241.4 32.8573C242.162 34.224 243.143 35.2768 244.342 36.0156C245.576 36.7544 246.884 37.1238 248.264 37.1238C249.681 37.1238 251.006 36.7728 252.241 36.071C253.476 35.3322 254.457 34.2979 255.183 32.9681C255.91 31.6014 256.273 29.976 256.273 28.0922Z" fill="#232537"/>
<path d="M280.284 19.116V33.9655C280.284 34.9998 280.52 35.757 280.993 36.2372C281.501 36.6805 282.336 36.9021 283.499 36.9021H287.04V43.4403H282.246C275.817 43.4403 272.603 40.2636 272.603 33.9101V19.116H269.007V12.744H272.603V5.153H280.284V12.744H287.04V19.116H280.284Z" fill="#232537"/>
<path d="M290.565 27.9813C290.565 24.8785 291.164 22.1265 292.362 19.7255C293.597 17.3244 295.25 15.4775 297.32 14.1846C299.427 12.8917 301.769 12.2453 304.348 12.2453C306.6 12.2453 308.561 12.707 310.232 13.6305C311.939 14.554 313.301 15.7176 314.318 17.1213V12.744H322V43.4403H314.318V38.9522C313.338 40.3929 311.976 41.5934 310.232 42.5538C308.525 43.4773 306.546 43.939 304.294 43.939C301.751 43.939 299.427 43.2741 297.32 41.9443C295.25 40.6145 293.597 38.7491 292.362 36.348C291.164 33.9101 290.565 31.1212 290.565 27.9813ZM314.318 28.0922C314.318 26.2083 313.955 24.6014 313.229 23.2716C312.502 21.9049 311.522 20.8706 310.287 20.1687C309.052 19.4299 307.726 19.0606 306.31 19.0606C304.893 19.0606 303.585 19.4115 302.387 20.1133C301.188 20.8152 300.208 21.8495 299.445 23.2162C298.719 24.546 298.355 26.1344 298.355 27.9813C298.355 29.8283 298.719 31.4536 299.445 32.8573C300.208 34.224 301.188 35.2768 302.387 36.0156C303.622 36.7544 304.929 37.1238 306.31 37.1238C307.726 37.1238 309.052 36.7728 310.287 36.071C311.522 35.3322 312.502 34.2979 313.229 32.9681C313.955 31.6014 314.318 29.976 314.318 28.0922Z" fill="#232537"/>
</svg>
